<?xml version="1.0" encoding="UTF-8" standalone="no"?>
<svg xmlns="http://www.w3.org/2000/svg" xmlns:xlink="http://www.w3.org/1999/xlink" xmlns:serif="http://www.serif.com/" width="100%" height="100%" viewBox="0 0 1621 659" version="1.1" xml:space="preserve" style="fill-rule:evenodd;clip-rule:evenodd;stroke-linejoin:round;stroke-miterlimit:2;">
  <g>
    <path d="M186.787,1.742c-1.891,-0.063 -3.454,0.783 -4.733,2.175c-3.171,3.512 -4.521,10.45 -4.687,15.216c-0.025,0.446 -0.025,0.871 -0.025,1.28c0.046,6.15 -0.296,17.025 -0.471,22.075c-0,0.116 -0,0.208 -0.013,0.312l0,0.288c-0.012,0.087 -0.012,0.183 -0.012,0.27c-0.013,0.096 -0.013,0.18 -0.013,0.263c0,0.079 -0.008,0.167 -0.008,0.246l-0,0.216c-0.012,0.075 -0.012,0.146 -0.012,0.204l-0,0.196c-0.013,0.054 -0.013,0.113 -0.013,0.167l-0,0.142c-0,0.046 -0.012,0.083 -0,0.116c-0,0.05 -0.012,0.079 -0.012,0.109l-0,0.083c-0.013,0.071 -0,0.104 -0,0.104l-119.08,-4.046c-7.216,-0.25 -15.941,-0.633 -25.929,-1.125l-0.096,101.28l18.18,59.233l0.245,1.104l11.767,136.342l7.704,35.425l0.129,1.275l-0.77,22.425c-0.292,8.8 -28.767,9.362 -29.159,20.962c-0.096,2.583 5.692,7.35 7.671,9.013l5.617,4.712c7.483,6.367 17.137,15.488 16.687,28.742c-0.683,20.121 2.984,185.562 3.221,197.787l414.292,-0.933l-5.338,-37.158c-9.396,-8.905 -50.154,-46.5 -57.904,-48.475c-6.217,-1.646 -52.221,-29.35 -54.75,-34.284c-0,0 -2.888,-5.6 -5.692,-12.133c-2.25,-5.146 -6.025,-13.858 -5.837,-19.454c0.133,-3.579 2.771,-19.784 4.366,-36.117c0.167,-1.521 0.771,-8.487 1.021,-15.654c0.259,-7.633 0.079,-15.479 -1.491,-17.175c-9.234,-9.871 -12.759,-18.513 -12.438,-26.192c0.65,-15.691 17.475,-27.32 34.779,-37.158c5.338,-3.004 10.038,-5.308 12.95,-6.771l-0.333,-55.033l-0,-0.108c0.083,-1.18 1.596,-3.93 2.475,-4.434l14.887,-9.133c-0.487,-0.471 -0.816,-0.983 -0.995,-1.529c-0,-0 -0,-0.005 -0.013,-0.005c-0.033,-0.1 -0.071,-0.208 -0.096,-0.316c-0.02,-0.192 -0.033,-0.413 -0.02,-0.65c0.554,-7.296 29.124,-34.575 41.304,-44.563c12.566,-10.246 42.816,-45.158 56.946,-56.125c14.133,-11.021 61.291,-26.966 72.379,-37.316c6.025,-5.646 8.52,-7.971 8.545,-9.204c0.038,-1.03 -1.633,-1.313 -4.366,-2.105c-6.059,-1.746 -9.717,-5.671 -25.763,-6.208c-4.012,-0.142 -7.812,-0.254 -11.387,-0.371c-5.775,-0.204 -10.975,-0.437 -15.554,-0.925c-3.925,-0.421 -7.417,-1 -10.434,-1.921c-8.662,-2.6 -7.371,-6.337 -22.533,-10.658c-0.592,-0.175 -1.204,-0.308 -1.8,-0.404c-0.521,-0.079 -1.042,-0.125 -1.55,-0.138c-13.242,-0.45 -22.246,19.321 -37.467,20.892c-0.983,0.129 -1.929,0.158 -2.85,0.121c-4.854,-0.163 -8.975,-2.104 -12.746,-4.909c-7.612,-5.658 -13.812,-14.829 -21.799,-20.15c-1.134,-0.77 -2.18,-1.425 -3.159,-2.012c-3.708,-2.242 -6.346,-3.246 -8.691,-3.329c-3.905,-0.138 -7.017,2.325 -12.992,6.041c-1.433,0.871 -2.746,1.242 -3.979,1.205c-7.809,-0.275 -11.729,-17.209 -16.521,-23.267c-5.479,-7.017 -27.633,-15.85 -41.879,-17.717c-0.817,-0.087 -1.646,-0.162 -2.417,-0.187c-4.875,-0.171 -8.683,1.158 -12.308,3.083c-5.621,2.984 -10.755,7.421 -18.675,9.896c-2.305,0.729 -4.317,1.096 -6.117,1.213c-0.558,0.029 -1.079,0.029 -1.596,0.012c-7.883,-0.267 -12.312,-6.137 -24.841,-11.796c-1.455,-0.662 -2.83,-1.237 -4.109,-1.733c-6.071,-2.296 -10.483,-2.867 -15.266,-3.033c-1.526,-0.051 -3.1,-0.055 -4.78,-0.08c-0.854,-0.004 -1.737,-0.037 -2.65,-0.058c-0.687,-0.012 -1.412,-0.025 -2.145,-0.046c-1.788,-0.058 -3.726,-0.166 -5.867,-0.333c-1.679,-0.125 -3.458,-0.308 -5.375,-0.546c-15.338,-1.85 -16.283,-12.763 -15.904,-23.579c0.07,-2.167 0.2,-4.325 0.27,-6.408c0.038,-0.834 0.051,-1.659 0.051,-2.467c0.116,-12.929 -9.125,-30.9 -21.363,-41.504c-1.088,-0.934 -2.108,-1.659 -3.067,-2.175c-1.325,-0.7 -2.52,-1.046 -3.596,-1.075Z" style="fill:#004566;fill-rule:nonzero;"></path>
    <path d="M531.35,371.792c0,119.187 -118.946,215.808 -265.675,215.808c-146.737,0 -265.675,-96.621 -265.675,-215.808c0,-119.184 118.938,-215.805 265.675,-215.805c146.729,0 265.675,96.621 265.675,215.805Z" style="fill:#004566;fill-rule:nonzero;"></path>
    <path d="M500.021,371.792c-0,105.129 -104.925,190.362 -234.346,190.362c-129.425,0 -234.35,-85.233 -234.35,-190.362c0,-105.125 104.925,-190.35 234.35,-190.35c129.421,-0 234.346,85.225 234.346,190.35Z" style="fill:#b4dbf2;fill-rule:nonzero;"></path>
    <path d="M265.675,190.533c-124.208,0 -225.262,81.313 -225.262,181.259c-0,99.954 101.054,181.279 225.262,181.279c124.208,-0 225.258,-81.325 225.258,-181.279c0,-99.946 -101.05,-181.259 -225.258,-181.259Zm0,380.713c-134.233,-0 -243.442,-89.475 -243.442,-199.454c0,-109.967 109.209,-199.438 243.442,-199.438c134.229,0 243.437,89.471 243.437,199.438c0,109.979 -109.208,199.454 -243.437,199.454Z" style="fill:#fff;fill-rule:nonzero;"></path>
    <path d="M582.071,518.583c3.346,0.763 6.216,1.142 8.616,1.142c5.176,0 9.175,-1.354 12.001,-4.075c2.82,-2.713 4.237,-6.321 4.237,-10.838c0,-4.387 -1.3,-7.808 -3.908,-10.275c-2.6,-2.458 -6.588,-3.691 -11.955,-3.691c-2.362,-0 -5.22,0.258 -8.562,0.762c-0.258,9.529 -0.4,18.525 -0.429,26.975Zm-19.883,-29.629l-0,-2.791c4.074,0.35 9.279,0.516 15.625,0.516l18.695,-0.187c6.942,-0 12.009,1.471 15.2,4.404c3.184,2.967 4.78,6.992 4.78,12.071c-0,5.895 -2.151,10.845 -6.438,14.841c-4.296,3.996 -10.2,5.984 -17.704,5.984c-2.909,-0 -6.346,-0.405 -10.321,-1.225c-0.033,4.921 -0.05,8.441 -0.05,10.554c-0,8.016 0.158,12.671 0.475,13.962c0.125,0.542 0.425,0.946 0.9,1.234c0.879,0.5 3.85,1.12 8.9,1.845c0.442,0.063 1.067,0.188 1.892,0.375l-0,2.796c-5.996,-0.35 -11.596,-0.521 -16.804,-0.521c-4.926,0 -9.975,0.171 -15.15,0.521l-0,-2.796c1.233,-0.312 2.145,-0.516 2.745,-0.612c4.167,-0.85 6.488,-1.471 6.959,-1.842c0.787,-0.696 1.187,-2.541 1.187,-5.541l0.142,-22.913l-0.05,-22.912l-0,-1.042c-0,-2.017 -0.309,-3.313 -0.925,-3.879c-0.613,-0.571 -3.179,-1.329 -7.692,-2.275c-0.504,-0.121 -1.292,-0.309 -2.366,-0.567Z" style="fill:#57a8c4;fill-rule:nonzero;"></path>
    <path d="M650.029,486.163l0,2.791c-1.108,0.258 -1.929,0.429 -2.462,0.521c-4.2,0.729 -6.625,1.412 -7.288,2.058c-0.666,0.646 -0.996,2.088 -0.996,4.329l0,1.663l-0.237,19.025l0.141,27.646c0,2.208 0.321,3.617 0.971,4.216c0.642,0.596 2.863,1.117 6.65,1.563c0.725,0.092 1.779,0.279 3.175,0.562l0,2.796c-5.087,-0.35 -9.975,-0.521 -14.675,-0.521c-4.862,0 -10.2,0.171 -16.004,0.521l0,-2.796c0.917,-0.254 1.613,-0.404 2.083,-0.47c4.48,-0.73 7.046,-1.396 7.692,-2.013c0.646,-0.616 0.971,-2.171 0.971,-4.662l-0.096,-2.367l0.146,-17.371c-0,-17.867 -0.05,-27.741 -0.146,-29.633c-0.058,-1.042 -0.4,-1.846 -1.008,-2.413c-0.617,-0.571 -2.992,-1.254 -7.146,-2.037c-0.562,-0.129 -1.396,-0.334 -2.496,-0.617l0,-2.791c6.859,0.35 12.217,0.516 16.071,0.516c4.3,0 9.188,-0.166 14.654,-0.516Z" style="fill:#57a8c4;fill-rule:nonzero;"></path>
    <path d="M656.629,488.954l0,-2.791c7.734,0.35 12.971,0.516 15.717,0.516c1.704,0 7.15,-0.166 16.333,-0.516l0,2.791c-5.683,0.979 -9.012,1.629 -9.987,1.942c-0.696,0.221 -1.2,0.571 -1.517,1.041c-0.471,0.663 -0.742,2.034 -0.804,4.117c-0.067,2.084 -0.092,13.758 -0.092,35.029c0,4.196 0.046,9.804 0.138,16.809l20.879,-0c3.121,-0 5.158,-0.188 6.104,-0.571c0.946,-0.379 1.925,-1.213 2.937,-2.509c1.009,-1.295 2.9,-4.541 5.68,-9.749l4.025,-0l-3.788,10.558c-0.662,1.95 -1.471,4.525 -2.417,7.712c-13.049,-0.35 -24.42,-0.521 -34.099,-0.521c-6.842,0 -13.196,0.171 -19.059,0.521l0,-2.796c4.804,-0.879 7.633,-1.487 8.484,-1.82c0.845,-0.329 1.42,-0.784 1.716,-1.346c0.304,-0.567 0.45,-2.225 0.45,-4.975l0.238,-29.017l-0.142,-18.696c0,-1.612 -0.238,-2.625 -0.708,-3.029c-0.734,-0.633 -3.067,-1.3 -7.009,-1.987c-0.691,-0.125 -1.72,-0.363 -3.079,-0.713Z" style="fill:#57a8c4;fill-rule:nonzero;"></path>
    <path d="M731.971,518.8c-0,10.421 2.279,18.254 6.837,23.475c4.563,5.225 10.325,7.842 17.304,7.842c4.609,-0 8.692,-1.221 12.259,-3.646c3.566,-2.438 6.266,-5.996 8.096,-10.692c1.829,-4.683 2.746,-9.871 2.746,-15.558c-0,-7.138 -1.171,-13.063 -3.505,-17.763c-2.337,-4.712 -5.22,-8.079 -8.662,-10.121c-3.442,-2.037 -7.308,-3.049 -11.596,-3.049c-4.704,-0 -8.921,1.237 -12.642,3.716c-3.725,2.483 -6.458,6.063 -8.212,10.758c-1.75,4.688 -2.625,9.7 -2.625,15.038Zm-10.367,1.396c0,-10.346 3.338,-18.846 10.009,-25.488c6.674,-6.65 15.249,-9.966 25.729,-9.966c9.754,-0 17.516,2.933 23.291,8.804c5.775,5.871 8.663,13.946 8.663,24.237c-0,11.425 -3.25,20.442 -9.75,27.05c-6.504,6.613 -15.054,9.917 -25.659,9.917c-9.941,-0 -17.808,-2.996 -23.6,-8.992c-5.791,-5.991 -8.683,-14.512 -8.683,-25.562Z" style="fill:#57a8c4;fill-rule:nonzero;"></path>
    <path d="M799.883,504.625l-3.645,0c0.595,-5.492 1.137,-11.646 1.608,-18.462c13.967,0.35 23.933,0.516 29.891,0.516c4.955,0 13.971,-0.166 27.059,-0.516c0.4,7.033 0.875,13.187 1.421,18.462l-3.55,0c-1.479,-5.779 -2.442,-9.163 -2.888,-10.158c-0.437,-0.992 -1.079,-1.704 -1.908,-2.13c-0.842,-0.429 -2.958,-0.637 -6.359,-0.637l-10.483,-0c-0.25,8.4 -0.379,18.771 -0.379,31.15c0,11.483 0.129,19.25 0.379,23.292c0.063,0.941 0.3,1.591 0.709,1.941c0.537,0.438 3.141,1.113 7.812,2.034c0.442,0.058 1.104,0.204 1.987,0.42l0,2.796c-6.245,-0.35 -11.816,-0.521 -16.708,-0.521c-4.641,0 -9.391,0.171 -14.25,0.521l0,-2.796c1.104,-0.283 1.942,-0.47 2.509,-0.562c4.325,-0.729 6.816,-1.346 7.483,-1.85c0.283,-0.254 0.496,-0.608 0.637,-1.067c0.142,-0.45 0.259,-3.95 0.355,-10.483c0.12,-10.1 0.187,-17.579 0.187,-22.437c0,-8.492 -0.067,-15.971 -0.187,-22.438l-11.267,-0l-2.038,0.046c-1.796,-0 -2.979,0.191 -3.55,0.566c-0.883,0.546 -1.67,1.675 -2.362,3.413c-0.542,1.325 -1.359,4.283 -2.463,8.9Z" style="fill:#57a8c4;fill-rule:nonzero;"></path>
    <path d="M903.542,504.246l-3.6,-0c-0.817,-4.054 -1.75,-7.017 -2.792,-8.883c-1.042,-1.863 -2.625,-3.334 -4.754,-4.392c-2.134,-1.059 -4.521,-1.588 -7.171,-1.588c-3.75,0 -6.746,1.038 -8.971,3.129c-2.225,2.08 -3.337,4.609 -3.337,7.58c-0,2.621 0.916,4.908 2.745,6.866c1.801,1.959 6.196,4.438 13.192,7.429c6.996,2.988 11.754,6.08 14.271,9.267c2.492,3.225 3.733,6.846 3.733,10.859c0,3.604 -0.937,6.954 -2.821,10.058c-1.87,3.091 -4.695,5.562 -8.466,7.408c-3.775,1.85 -7.838,2.771 -12.192,2.771c-2.967,-0 -5.941,-0.279 -8.925,-0.85c-2.987,-0.567 -6.554,-1.542 -10.725,-2.933c0.475,-4.45 0.713,-10.346 0.713,-17.705l3.646,0c1.041,4.734 2.12,8.051 3.241,9.942c1.117,1.896 2.804,3.45 5.075,4.663c2.275,1.212 4.759,1.82 7.471,1.82c3.712,0 6.979,-1.041 9.788,-3.125c2.804,-2.087 4.199,-4.999 4.199,-8.762c0,-3.067 -1.008,-5.779 -3.029,-8.15c-2.05,-2.342 -6.491,-4.988 -13.32,-7.942c-6.834,-2.95 -11.405,-5.775 -13.713,-8.491c-2.3,-2.68 -3.454,-5.884 -3.454,-9.6c-0,-3.25 0.937,-6.35 2.792,-9.296c1.866,-2.954 4.608,-5.284 8.216,-7c3.613,-1.721 7.363,-2.579 11.242,-2.579c4.671,-0 10.321,1.116 16.946,3.358c-0.154,4.608 -0.234,7.387 -0.234,8.329c0,1.929 0.08,4.529 0.234,7.817Z" style="fill:#57a8c4;fill-rule:nonzero;"></path>
    <path d="M959.658,527.346c4.388,0.121 7.525,0.187 9.417,0.187c0.562,0 5.404,-0.066 14.517,-0.187l-11.975,-28.396l-11.959,28.396Zm12.48,-42.321l2.974,-0c4.267,10.954 9.509,23.367 15.721,37.254l11.025,24.096c0.509,0.854 1.063,1.492 1.663,1.892c0.412,0.287 2.733,1.041 6.958,2.27l0,2.796c-5.737,-0.35 -9.975,-0.521 -12.687,-0.521c-2.775,0 -7.509,0.171 -14.2,0.521l-0,-2.796c3.821,-0.783 6.046,-1.416 6.675,-1.891c0.629,-0.471 0.946,-1.021 0.946,-1.654c-0,-0.663 -0.33,-1.784 -0.996,-3.363l-4.805,-11.55c-6.691,-0.066 -11.562,-0.096 -14.604,-0.096l-12.958,0.096l-4.983,11.979c-0.817,1.921 -1.229,3.125 -1.229,3.6c-0,0.404 0.199,0.746 0.591,1.013c0.4,0.267 2.238,0.75 5.513,1.446c0.35,0.091 0.846,0.233 1.47,0.42l0,2.796c-5.4,-0.35 -9.195,-0.521 -11.408,-0.521c-2.804,0 -6.4,0.171 -10.792,0.521l0,-2.796c2.875,-0.629 4.846,-1.341 5.917,-2.125c0.792,-0.599 1.608,-1.608 2.463,-3.025c1.795,-3.125 6.379,-13.187 13.725,-30.158l13.021,-30.204Z" style="fill:#57a8c4;fill-rule:nonzero;"></path>
    <path d="M1055.13,504.246l-3.595,-0c-0.821,-4.054 -1.755,-7.017 -2.792,-8.883c-1.042,-1.863 -2.629,-3.334 -4.758,-4.392c-2.13,-1.059 -4.521,-1.588 -7.171,-1.588c-3.759,0 -6.746,1.038 -8.967,3.129c-2.229,2.08 -3.342,4.609 -3.342,7.58c0,2.621 0.917,4.908 2.742,6.866c1.796,1.959 6.196,4.438 13.196,7.429c6.991,2.988 11.746,6.08 14.271,9.267c2.487,3.225 3.729,6.846 3.729,10.859c-0,3.604 -0.938,6.954 -2.813,10.058c-1.879,3.091 -4.704,5.562 -8.479,7.408c-3.767,1.85 -7.829,2.771 -12.183,2.771c-2.963,-0 -5.942,-0.279 -8.925,-0.85c-2.983,-0.567 -6.554,-1.542 -10.721,-2.933c0.471,-4.45 0.712,-10.346 0.712,-17.705l3.646,0c1.038,4.734 2.113,8.051 3.234,9.942c1.116,1.896 2.812,3.45 5.083,4.663c2.267,1.212 4.758,1.82 7.471,1.82c3.712,0 6.975,-1.041 9.775,-3.125c2.804,-2.087 4.208,-4.999 4.208,-8.762c0,-3.067 -1.012,-5.779 -3.025,-8.15c-2.058,-2.342 -6.496,-4.988 -13.333,-7.942c-6.829,-2.95 -11.4,-5.775 -13.7,-8.491c-2.3,-2.68 -3.459,-5.884 -3.459,-9.6c0,-3.25 0.93,-6.35 2.796,-9.296c1.863,-2.954 4.6,-5.284 8.217,-7c3.613,-1.721 7.354,-2.579 11.242,-2.579c4.666,-0 10.316,1.116 16.941,3.358c-0.158,4.608 -0.233,7.387 -0.233,8.329c-0,1.929 0.075,4.529 0.233,7.817Z" style="fill:#57a8c4;fill-rule:nonzero;"></path>
    <path d="M1107.66,504.246l-3.595,-0c-0.834,-4.054 -1.755,-7.017 -2.792,-8.883c-1.042,-1.863 -2.629,-3.334 -4.763,-4.392c-2.129,-1.059 -4.52,-1.588 -7.174,-1.588c-3.759,0 -6.738,1.038 -8.963,3.129c-2.225,2.08 -3.342,4.609 -3.342,7.58c0,2.621 0.913,4.908 2.746,6.866c1.792,1.959 6.192,4.438 13.188,7.429c6.991,2.988 11.75,6.08 14.266,9.267c2.496,3.225 3.742,6.846 3.742,10.859c0,3.604 -0.946,6.954 -2.817,10.058c-1.879,3.091 -4.708,5.562 -8.471,7.408c-3.774,1.85 -7.833,2.771 -12.191,2.771c-2.971,-0 -5.942,-0.279 -8.921,-0.85c-2.983,-0.567 -6.558,-1.542 -10.725,-2.933c0.475,-4.45 0.708,-10.346 0.708,-17.705l3.646,0c1.042,4.734 2.121,8.051 3.234,9.942c1.124,1.896 2.816,3.45 5.083,4.663c2.262,1.212 4.766,1.82 7.471,1.82c3.716,0 6.975,-1.041 9.779,-3.125c2.804,-2.087 4.212,-4.999 4.212,-8.762c0,-3.067 -1.021,-5.779 -3.029,-8.15c-2.062,-2.342 -6.504,-4.988 -13.333,-7.942c-6.842,-2.95 -11.404,-5.775 -13.696,-8.491c-2.308,-2.68 -3.458,-5.884 -3.458,-9.6c-0,-3.25 0.921,-6.35 2.795,-9.296c1.859,-2.954 4.588,-5.284 8.213,-7c3.608,-1.721 7.358,-2.579 11.242,-2.579c4.662,-0 10.316,1.116 16.945,3.358c-0.162,4.608 -0.237,7.387 -0.237,8.329c0,1.929 0.075,4.529 0.237,7.817Z" style="fill:#57a8c4;fill-rule:nonzero;"></path>
    <path d="M1129.98,518.8c0,10.421 2.275,18.254 6.842,23.475c4.558,5.225 10.321,7.842 17.304,7.842c4.604,-0 8.688,-1.221 12.263,-3.646c3.562,-2.438 6.258,-5.996 8.095,-10.692c1.821,-4.683 2.742,-9.871 2.742,-15.558c-0,-7.138 -1.171,-13.063 -3.504,-17.763c-2.338,-4.712 -5.229,-8.079 -8.663,-10.121c-3.441,-2.037 -7.312,-3.049 -11.596,-3.049c-4.708,-0 -8.925,1.237 -12.641,3.716c-3.725,2.483 -6.458,6.063 -8.213,10.758c-1.75,4.688 -2.629,9.7 -2.629,15.038Zm-10.366,1.396c-0,-10.346 3.341,-18.846 10.012,-25.488c6.675,-6.65 15.246,-9.966 25.729,-9.966c9.754,-0 17.517,2.933 23.292,8.804c5.775,5.871 8.662,13.946 8.662,24.237c0,11.425 -3.25,20.442 -9.754,27.05c-6.504,6.613 -15.05,9.917 -25.654,9.917c-9.942,-0 -17.813,-2.996 -23.596,-8.992c-5.8,-5.991 -8.691,-14.512 -8.691,-25.562Z" style="fill:#57a8c4;fill-rule:nonzero;"></path>
    <path d="M1255.49,541.833l1.991,3.596c-5.07,3.188 -9.937,5.538 -14.6,7.05c-4.671,1.517 -9.487,2.271 -14.466,2.271c-6.338,-0 -12.088,-1.442 -17.246,-4.325c-5.179,-2.892 -9.096,-6.983 -11.754,-12.258c-2.663,-5.288 -3.992,-11.155 -3.992,-17.592c0,-10.504 3.421,-19.104 10.271,-25.796c6.867,-6.696 15.933,-10.037 27.212,-10.037c6.93,-0 14.65,1.421 23.154,4.258c-0.062,2.775 -0.095,4.863 -0.095,6.25c-0,4.046 0.233,8.283 0.712,12.737l-3.975,0c-1.171,-5.525 -2.412,-9.333 -3.737,-11.412c-1.325,-2.083 -3.471,-3.742 -6.425,-4.992c-2.975,-1.25 -6.63,-1.871 -10.979,-1.871c-9.142,0 -16.03,3.251 -20.667,9.75c-3.592,5.08 -5.388,11.455 -5.388,19.121c0,9.163 2.529,16.38 7.592,21.667c5.058,5.279 11.688,7.925 19.883,7.925c3.538,0 6.967,-0.454 10.317,-1.371c3.333,-0.921 7.408,-2.575 12.192,-4.971Z" style="fill:#57a8c4;fill-rule:nonzero;"></path>
    <path d="M1294.68,486.163l0,2.791c-1.112,0.258 -1.925,0.429 -2.462,0.521c-4.196,0.729 -6.63,1.412 -7.292,2.058c-0.663,0.646 -0.992,2.088 -0.992,4.329l0,1.663l-0.237,19.025l0.142,27.646c-0,2.208 0.325,3.617 0.97,4.216c0.646,0.596 2.867,1.117 6.65,1.563c0.725,0.092 1.784,0.279 3.171,0.562l0,2.796c-5.083,-0.35 -9.971,-0.521 -14.679,-0.521c-4.854,0 -10.192,0.171 -15.996,0.521l0,-2.796c0.917,-0.254 1.608,-0.404 2.088,-0.47c4.479,-0.73 7.041,-1.396 7.687,-2.013c0.646,-0.616 0.971,-2.171 0.971,-4.662l-0.096,-2.367l0.142,-17.371c-0,-17.867 -0.046,-27.741 -0.142,-29.633c-0.062,-1.042 -0.4,-1.846 -1.012,-2.413c-0.613,-0.571 -2.992,-1.254 -7.138,-2.037c-0.571,-0.129 -1.4,-0.334 -2.5,-0.617l0,-2.791c6.858,0.35 12.213,0.516 16.075,0.516c4.296,0 9.179,-0.166 14.65,-0.516Z" style="fill:#57a8c4;fill-rule:nonzero;"></path>
    <path d="M1323,527.346c4.375,0.121 7.517,0.187 9.404,0.187c0.571,0 5.409,-0.066 14.525,-0.187l-11.975,-28.396l-11.954,28.396Zm12.475,-42.321l2.979,-0c4.263,10.954 9.5,23.367 15.717,37.254l11.029,24.096c0.504,0.854 1.059,1.492 1.654,1.892c0.413,0.287 2.729,1.041 6.963,2.27l-0,2.796c-5.746,-0.35 -9.971,-0.521 -12.688,-0.521c-2.771,0 -7.508,0.171 -14.2,0.521l0,-2.796c3.817,-0.783 6.042,-1.416 6.671,-1.891c0.633,-0.471 0.95,-1.021 0.95,-1.654c0,-0.663 -0.333,-1.784 -0.996,-3.363l-4.812,-11.55c-6.688,-0.066 -11.554,-0.096 -14.604,-0.096l-12.955,0.096l-4.979,11.979c-0.821,1.921 -1.229,3.125 -1.229,3.6c0,0.404 0.196,0.746 0.592,1.013c0.396,0.267 2.229,0.75 5.517,1.446c0.349,0.091 0.833,0.233 1.466,0.42l0,2.796c-5.396,-0.35 -9.204,-0.521 -11.408,-0.521c-2.813,0 -6.409,0.171 -10.792,0.521l0,-2.796c2.867,-0.629 4.842,-1.341 5.917,-2.125c0.783,-0.599 1.608,-1.608 2.462,-3.025c1.796,-3.125 6.371,-13.187 13.725,-30.158l13.021,-30.204Z" style="fill:#57a8c4;fill-rule:nonzero;"></path>
    <path d="M1376.08,504.625l-3.645,0c0.595,-5.492 1.133,-11.646 1.608,-18.462c13.971,0.35 23.929,0.516 29.892,0.516c4.945,0 13.966,-0.166 27.054,-0.516c0.408,7.033 0.879,13.187 1.416,18.462l-3.545,0c-1.484,-5.779 -2.438,-9.163 -2.884,-10.158c-0.442,-0.992 -1.071,-1.704 -1.912,-2.13c-0.834,-0.429 -2.955,-0.637 -6.35,-0.637l-10.488,-0c-0.254,8.4 -0.375,18.771 -0.375,31.15c0,11.483 0.121,19.25 0.375,23.292c0.067,0.941 0.3,1.591 0.708,1.941c0.538,0.438 3.142,1.113 7.809,2.034c0.446,0.058 1.112,0.204 1.991,0.42l0,2.796c-6.245,-0.35 -11.816,-0.521 -16.708,-0.521c-4.637,0 -9.396,0.171 -14.254,0.521l-0,-2.796c1.112,-0.283 1.946,-0.47 2.512,-0.562c4.326,-0.729 6.817,-1.346 7.48,-1.85c0.283,-0.254 0.495,-0.608 0.641,-1.067c0.138,-0.45 0.254,-3.95 0.355,-10.483c0.12,-10.1 0.187,-17.579 0.187,-22.437c-0,-8.492 -0.067,-15.971 -0.187,-22.438l-11.267,-0l-2.038,0.046c-1.8,-0 -2.979,0.191 -3.55,0.566c-0.883,0.546 -1.671,1.675 -2.366,3.413c-0.538,1.325 -1.359,4.283 -2.459,8.9Z" style="fill:#57a8c4;fill-rule:nonzero;"></path>
    <path d="M1468.99,486.163l-0,2.791c-1.109,0.258 -1.921,0.429 -2.463,0.521c-4.196,0.729 -6.625,1.412 -7.292,2.058c-0.658,0.646 -0.991,2.088 -0.991,4.329l-0,1.663l-0.238,19.025l0.142,27.646c-0,2.208 0.325,3.617 0.971,4.216c0.645,0.596 2.862,1.117 6.65,1.563c0.725,0.092 1.783,0.279 3.175,0.562l-0,2.796c-5.084,-0.35 -9.975,-0.521 -14.679,-0.521c-4.859,0 -10.192,0.171 -15.996,0.521l-0,-2.796c0.912,-0.254 1.608,-0.404 2.083,-0.47c4.479,-0.73 7.042,-1.396 7.692,-2.013c0.645,-0.616 0.971,-2.171 0.971,-4.662l-0.096,-2.367l0.137,-17.371c0,-17.867 -0.041,-27.741 -0.137,-29.633c-0.067,-1.042 -0.4,-1.846 -1.017,-2.413c-0.608,-0.571 -2.992,-1.254 -7.138,-2.037c-0.57,-0.129 -1.4,-0.334 -2.495,-0.617l-0,-2.791c6.854,0.35 12.208,0.516 16.07,0.516c4.3,0 9.184,-0.166 14.651,-0.516Z" style="fill:#57a8c4;fill-rule:nonzero;"></path>
    <path d="M1483.66,518.8c0,10.421 2.279,18.254 6.842,23.475c4.558,5.225 10.325,7.842 17.304,7.842c4.609,-0 8.692,-1.221 12.259,-3.646c3.57,-2.438 6.266,-5.996 8.1,-10.692c1.824,-4.683 2.741,-9.871 2.741,-15.558c0,-7.138 -1.162,-13.063 -3.504,-17.763c-2.333,-4.712 -5.225,-8.079 -8.662,-10.121c-3.438,-2.037 -7.305,-3.049 -11.596,-3.049c-4.705,-0 -8.921,1.237 -12.642,3.716c-3.721,2.483 -6.458,6.063 -8.212,10.758c-1.75,4.688 -2.63,9.7 -2.63,15.038Zm-10.366,1.396c-0,-10.346 3.341,-18.846 10.012,-25.488c6.675,-6.65 15.25,-9.966 25.729,-9.966c9.755,-0 17.517,2.933 23.292,8.804c5.775,5.871 8.663,13.946 8.663,24.237c-0,11.425 -3.246,20.442 -9.755,27.05c-6.5,6.613 -15.05,9.917 -25.654,9.917c-9.941,-0 -17.808,-2.996 -23.596,-8.992c-5.795,-5.991 -8.691,-14.512 -8.691,-25.562Z" style="fill:#57a8c4;fill-rule:nonzero;"></path>
    <path d="M1543.39,488.954l0,-2.791c4,0.35 7.15,0.516 9.446,0.516c1.859,0 5.175,-0.166 9.963,-0.516l13.45,16.804c1.225,1.483 10.721,12.991 28.496,34.508c0.029,-4.421 0.045,-7.621 0.045,-9.608c0,-4.705 -0.145,-13.3 -0.425,-25.8c-0.12,-5.842 -0.283,-9.009 -0.454,-9.517c-0.17,-0.5 -0.533,-0.963 -1.087,-1.371c-0.55,-0.408 -2.75,-0.975 -6.6,-1.704c-0.504,-0.092 -1.25,-0.263 -2.225,-0.521l-0,-2.791c5.612,0.35 10.083,0.516 13.396,0.516c3.22,0 7.662,-0.166 13.35,-0.516l-0,2.791c-0.859,0.217 -1.488,0.363 -1.896,0.429c-4.234,0.879 -6.584,1.463 -7.054,1.75c-0.35,0.188 -0.63,0.475 -0.854,0.854c-0.309,0.5 -0.538,1.446 -0.659,2.838c-0.029,0.596 -0.1,4.9 -0.216,12.896c-0.109,8.004 -0.163,15.742 -0.163,23.221c0,8.833 0.158,16.304 0.471,22.391l-3.075,1.417l-19.738,-24.525l-25.891,-31.154l0.229,27.983c0.162,12.254 0.337,18.783 0.521,19.608c0.125,0.567 0.408,1.059 0.858,1.463c0.692,0.637 3.046,1.296 7.05,1.992c0.475,0.058 1.183,0.204 2.129,0.42l0,2.796c-4.829,-0.35 -8.896,-0.521 -12.212,-0.521c-2.775,0 -7.621,0.171 -14.534,0.521l0,-2.796c1.109,-0.254 1.946,-0.441 2.509,-0.562c3.787,-0.667 5.983,-1.279 6.579,-1.85c0.35,-0.283 0.6,-0.771 0.758,-1.463c0.317,-1.454 0.538,-6.941 0.667,-16.474c0.158,-13.513 0.233,-21.492 0.233,-23.955c0,-7.925 -0.112,-12.325 -0.329,-13.208c-0.129,-0.633 -0.542,-1.162 -1.229,-1.588c-0.696,-0.429 -3.679,-1.083 -8.95,-1.962c-0.567,-0.092 -1.417,-0.263 -2.559,-0.521Z" style="fill:#57a8c4;fill-rule:nonzero;"></path>
    <path d="M568.604,276.504l53.025,0l21.109,124.142l20.858,-124.142l52.521,0l-0,177.417l-32.417,-0l3.021,-153.796l-28.65,153.796l-30.663,-0l-29.146,-153.796l2.513,153.796l-32.171,-0l0,-177.417Z" style="fill:#004566;fill-rule:nonzero;"></path>
    <rect x="752.067" y="276.504" width="32.417" height="177.417" style="fill:#004566;fill-rule:nonzero;"></rect>
    <path d="M920.692,453.921l-41.217,-0l-31.658,-132.938l3.016,132.938l-30.662,-0l-0,-177.417l41.962,0l31.917,130.175l-3.267,-130.175l29.909,0l-0,177.417Z" style="fill:#004566;fill-rule:nonzero;"></path>
    <path d="M1056.9,453.921l-41.212,-0l-31.663,-132.938l3.021,132.938l-30.667,-0l0,-177.417l41.967,0l31.917,130.175l-3.271,-130.175l29.908,0l0,177.417Z" style="fill:#004566;fill-rule:nonzero;"></path>
    <path d="M1092.6,276.258l85.946,0l-0,27.134l-53.275,-0l-0,41.716l50,0l-0,26.888l-50,-0l-0,54.533l55.537,0l0,27.392l-88.208,-0l-0,-177.663Z" style="fill:#004566;fill-rule:nonzero;"></path>
    <path d="M1194.39,391.346l32.666,-0l0,20.608c0,10.3 0,20.6 15.829,20.6c16.08,0 16.08,-10.554 16.08,-26.383c-0,-12.559 -2.505,-17.838 -11.051,-23.621l-31.158,-20.854c-16.596,-11.308 -21.116,-23.621 -21.116,-41.717c-0,-13.821 1.258,-27.137 12.82,-36.687c6.534,-5.534 18.596,-10.554 35.679,-10.554c19.105,-0 45.238,7.791 45.238,38.195l0,17.588l-32.421,-0l0,-12.813c0,-8.545 0,-18.095 -14.321,-18.095c-8.791,-0 -15.075,3.27 -15.075,17.591c0,14.825 3.263,18.092 10.305,22.871l32.166,21.863c6.275,4.52 13.067,10.804 16.833,17.337c4.771,8.042 4.771,13.567 4.771,27.892c0,15.837 0,25.633 -5.783,34.929c-9.792,15.833 -30.15,17.592 -42.208,17.592c-27.896,-0 -49.254,-10.555 -49.254,-40.45l-0,-25.892Z" style="fill:#004566;fill-rule:nonzero;"></path>
    <path d="M1376.33,319.729c-0,-9.304 -0,-22.116 -15.825,-22.116c-16.837,-0 -16.837,13.574 -16.837,23.37l-0,89.467c-0,10.046 0.499,21.604 16.583,21.604c16.079,0 16.079,-12.312 16.079,-20.858l-0,-91.467Zm32.929,96.246c0,13.067 -2.521,22.108 -9.55,29.15c-10.554,11.054 -27.137,12.563 -38.95,12.563c-39.958,-0 -49.762,-19.1 -49.762,-41.713l-0,-99.262c-0,-7.538 0.254,-20.859 9.304,-30.409c6.775,-7.283 20.104,-13.566 40.204,-13.566c16.083,-0 28.65,4.27 36.942,11.058c8.791,7.283 11.812,16.583 11.812,33.667l0,98.512Z" style="fill:#004566;fill-rule:nonzero;"></path>
    <path d="M1420.82,276.504l98.258,0l0,25.634l-32.671,-0l0,151.783l-32.916,-0l-0,-151.783l-32.671,-0l-0,-25.634Z" style="fill:#004566;fill-rule:nonzero;"></path>
    <path d="M1553.57,397.629l22.621,0l-10.809,-76.142l-11.812,76.142Zm-7.038,-121.125l37.442,0l33.171,177.417l-33.171,-0l-4.271,-28.904l-30.154,-0l-4.775,28.904l-32.671,-0l34.429,-177.417Z" style="fill:#004566;fill-rule:nonzero;"></path>
    <path d="M251.25,541.563c-4.55,-1.088 -8.325,-5.017 -11.688,-7.155c8.084,-3.95 15.58,-7.616 23.892,-11.662c-10.283,-4.496 -18.087,-7.904 -25.304,-11.054c8.317,-5.371 15.225,-9.859 22.313,-14.463c-9.384,-3 -16.626,-5.329 -24.196,-7.737c5.075,-5.667 8.237,-9.204 11.071,-12.342c-4.68,-4.104 -8.284,-7.283 -13.025,-11.463c4.379,-2.566 7.7,-4.499 11.883,-6.97c-4.759,-3.417 -7.325,-5.279 -9.534,-6.879c3.871,-5.93 7.251,-11.13 9.838,-15.1c-10.583,-3.021 -20.188,-5.742 -29.779,-8.488c0.317,-0.758 0.662,-1.517 1,-2.283c3.883,-1.154 7.754,-2.317 12.633,-3.742c-3.275,-2.483 -5.183,-3.967 -7.342,-5.621c4.505,-2.504 8.296,-4.637 12.105,-6.771c-0.271,-0.75 -0.525,-1.512 -0.792,-2.266c-4.471,-0.429 -8.975,-0.863 -13.45,-1.275c0.533,-0.896 1.079,-1.767 1.621,-2.667c-4.838,-3.571 -9.708,-7.162 -16.204,-11.967c3.933,-2.241 7.3,-4.141 11.179,-6.358c-4.138,-3.308 -6.546,-5.217 -8.413,-6.696c6.742,-5.308 12.717,-10.029 20.038,-15.825c-8.325,-1.379 -13.704,-2.258 -19.504,-3.241c1.379,-3.146 2.504,-5.651 3.408,-7.696c-5.675,-3.263 -10.7,-6.146 -16.55,-9.509c6.162,-4.27 10.208,-7.104 17,-11.841c-4.421,-1.621 -7.412,-2.725 -10.138,-3.73c4.255,-5.325 7.059,-8.833 9.701,-12.137c-7.68,-4.946 -14.834,-9.575 -22.784,-14.717c5.054,-3.325 8.109,-5.358 9.8,-6.491c-4.104,-11.571 -7.816,-22.025 -11,-31.046c-5.171,8.708 -10.916,18.379 -17.154,28.85c1.896,1.337 5.483,3.929 10.871,7.804c-7.1,4.937 -13.184,9.175 -20.546,14.287c2.475,3.334 5.621,7.592 9.417,12.709c-6.125,1.579 -11.896,3.112 -20.68,5.404c5.005,6.742 9.988,13.471 16.117,21.7c-6.487,2.996 -13.9,6.413 -22.517,10.404c3.763,4.071 6.963,7.525 10.309,11.125c-2.988,2.25 -5.946,4.475 -9.804,7.396c4.791,2.917 8.612,5.237 16.304,9.942c-11.275,3.55 -19.5,6.129 -29.079,9.145c3.391,3.534 7.737,8.067 12.283,12.801c-2.367,1.662 -5.392,3.795 -9.592,6.724c4.184,2.984 7.763,5.551 13.413,9.584c-9.513,1.733 -17.85,3.275 -26.434,4.817c2.05,12.404 12.321,15.162 24.405,17.595c-3.675,2.9 -6.43,5.525 -9.638,7.509c-3.104,1.912 -6.654,3.129 -12.591,5.862c6.954,2.175 11.433,3.554 15.824,4.925c-15.054,16.575 -22.325,16.35 -31.037,0.238c5.575,-5.817 10.858,-11.296 15.379,-16.009c-7.929,-3.612 -14.187,-6.483 -19.325,-8.829c7.029,-9.429 12.354,-16.554 19.221,-25.791c-18.508,3.62 -21.75,2.366 -28.783,-8.217c6.85,-4.483 13.666,-8.992 21.991,-14.488c-18.562,-4.925 -19.183,-7.304 -8.454,-19.312c2.833,-3.175 4.45,-7.313 7.929,-13.217c-21.695,3.658 -35.675,-3.704 -45.083,-16.841c5.858,-3.88 11.367,-7.542 18.004,-11.946c-5.762,-3.317 -9.65,-5.517 -12.142,-6.955c9.088,-8.37 15.559,-14.333 22.001,-20.295c-16.73,-0.284 -21.359,-3.067 -28.105,-16.517c6.417,-6.454 12.33,-12.408 18.267,-18.362c-0.658,-0.955 -1.321,-1.93 -1.992,-2.892c-3.775,1.9 -7.054,2.558 -9.95,2.383c-22.358,28.242 -35.379,61.821 -35.379,97.888c0,93.329 86.833,170.175 198.45,180.175c11.642,-0.025 24.375,1.45 32.883,-3.938c-7.591,-2.004 -14.891,-4.696 -22.562,-6.466Z" style="fill:#57a8c4;fill-rule:nonzero;"></path>
    <path d="M375.513,519.708c4.008,-2.854 6.541,-4.675 9.52,-6.787c-2.991,-2.088 -5.133,-3.592 -6.812,-4.771c3.221,-3.367 6.312,-6.575 8.716,-9.083c-6.791,-2.146 -12.625,-3.963 -20.624,-6.492c5.458,-3.329 8.17,-4.975 11.566,-7.054c-2.733,-2.054 -4.833,-3.638 -6.954,-5.233c2.367,-2.563 4.633,-5.013 7.308,-7.896c-6.112,-2.83 -11.366,-5.255 -15.966,-7.384c4.345,-5.833 7.875,-10.604 11.429,-15.383c-6.238,-1.633 -10.321,-2.713 -14.667,-3.833c2.696,-3.634 4.925,-6.65 6.671,-9.009c-5.217,-3.633 -9.533,-6.641 -14.571,-10.145c3.838,-2.746 6.375,-4.588 7.713,-5.538c-4.425,-7.417 -8.504,-14.271 -12.171,-20.458c-2.25,6.4 -4.884,13.816 -7.8,22.025c1.204,0.787 3.362,2.241 6.946,4.604c-5.638,3.646 -10.704,6.925 -16.15,10.433c1.871,2.346 3.862,4.829 6.875,8.617c-1.925,0.696 -4.046,1.491 -7.192,2.637c4.825,3.363 7.696,5.367 12.067,8.396c-4.154,2.388 -7.717,4.438 -11.742,6.754c0.65,1.442 1.433,3.217 2.417,5.454c-4.109,0.7 -7.929,1.326 -13.829,2.296c5.187,4.109 9.433,7.471 14.212,11.234c-1.325,1.033 -3.037,2.387 -5.975,4.746c2.75,1.562 5.146,2.92 7.929,4.508c-4.591,3.408 -8.05,5.946 -11.487,8.483c0.379,0.634 0.771,1.267 1.141,1.892c-3.171,0.296 -6.366,0.604 -9.533,0.904c-0.183,0.542 -0.371,1.075 -0.562,1.612c2.699,1.509 5.391,3.026 8.587,4.805c-1.533,1.166 -2.888,2.221 -5.208,3.983c3.458,1.021 6.208,1.833 8.954,2.65c0.242,0.538 0.483,1.092 0.716,1.625c-6.804,1.946 -13.608,3.875 -21.125,6.021c1.834,2.817 4.238,6.496 6.984,10.7c-1.571,1.133 -3.392,2.462 -6.759,4.887c2.959,1.75 5.309,3.117 8.413,4.938c-1.983,1.754 -3.692,3.258 -5.442,4.8c29.467,-4.725 56.859,-14.142 80.917,-27.283c-4.65,-0.842 -9.342,-1.705 -14.512,-2.655Z" style="fill:#57a8c4;fill-rule:nonzero;"></path>
    <path d="M471.358,400.842c5.655,-3.846 9.892,-6.2 13.209,-9.421c0.679,-0.663 -8.196,-4.534 -8.963,-6.071c3.679,-3.846 7.496,-7.817 11.325,-11.8c-0.312,-0.625 -0.608,-1.263 -0.917,-1.908c-12.245,0.379 -20.15,-5.425 -25.433,-14.884c8.567,-5.425 8.117,-5.296 1.863,-13.625c-3.45,-4.6 -4.934,-10.495 -7.188,-15.858c-0.787,-1.871 -1.179,-3.883 -1.95,-6.492c-5.516,9.25 -6.708,20.317 -19.662,24.45c2.608,2.988 4.975,5.704 7.866,9.03c-4.221,8.391 -8.512,17.287 -24.112,16.654c5.521,6.654 9.833,11.845 14.933,17.979c-2.975,0.717 -6.521,1.579 -12.012,2.904c4.583,3.883 8.97,7.575 13.887,11.733c-3.417,4.471 -8.25,7.371 -15.737,3.605c-0.467,0.675 -0.934,1.37 -1.396,2.05c4.196,4.225 8.387,8.445 12.946,13.029c-4.792,9.533 -14.138,11.512 -25.996,11.704c4.571,4.237 15.216,8.458 21.658,14.396c-1.762,1.016 -16.633,2.583 -20.716,4.937c4.7,3.125 10.612,12.146 20.929,12.2c-7.104,6.975 -12.642,10.809 -28.034,8.213c2.471,4.183 3.625,7.129 5.629,9.375c7.605,8.52 7.167,10.2 -5.987,13.704c5.9,3.891 5.875,3.896 10.733,7.083c-4.987,7.5 -4.691,3.067 -18.662,8.038c1.833,2.462 3.971,4.846 6.162,7.225c43.88,-25.613 75.834,-63.821 87.854,-108.121c-5.712,-3.721 -6.687,-7.038 -12.229,-10.129Z" style="fill:#57a8c4;fill-rule:nonzero;"></path>
    <path d="M111.946,357.029c0.971,3.367 3.787,3.571 3.787,3.571l128.579,24.312c9.446,1.192 10.842,11.33 10.842,11.33c0,0.954 4.096,58.025 4.096,58.025c0.958,6.983 -5.3,7.862 -5.3,7.862c-3.858,0.642 -39.979,7.783 -39.979,7.783c-4.654,0.559 -4.329,3.846 -4.329,3.846c-0.725,2.171 1.925,15.18 1.925,15.18c0.654,3.608 3.766,3.441 5.137,3.691c0.946,0.163 46.238,4.163 46.238,4.163c0.062,10.737 2.404,16.854 2.404,16.854c0.2,0.433 0.437,0.712 0.729,0.687c0.287,0.025 0.537,-0.254 0.725,-0.687c-0,-0 2.354,-6.117 2.413,-16.854c-0,-0 45.279,-4 46.237,-4.163c1.363,-0.25 4.5,-0.083 5.138,-3.691c-0,-0 2.641,-13.009 1.916,-15.18c0,0 0.334,-3.287 -4.333,-3.846c-0,0 -36.117,-7.141 -39.963,-7.783c0,0 -6.271,-0.879 -5.3,-7.862c0,-0 4.092,-57.071 4.092,-58.025c0,-0 1.388,-10.138 10.829,-11.33l128.592,-24.312c-0,-0 2.821,-0.204 3.791,-3.571c0,0 5.242,-16.175 5.68,-26.841c-0.959,-7.392 -6.984,-7.838 -9.955,-8.038l-113.658,-8.671c0,0 -11.679,-4.337 -18.258,-6.958c-3.113,-1.584 -3.446,-2.963 -3.775,-4.821c-0.309,-4.725 -2.109,-30.371 -2.758,-37.654c-0,-0 -3.684,-25.117 -8.676,-28.659c0,0 -1.466,-1.374 -2.629,-1.233c0,0 -0.095,0 -0.108,-0.012c-1.217,-0.009 -2.742,1.245 -2.742,1.245c-4.996,3.542 -8.662,28.659 -8.662,28.659c-0.667,7.283 -2.45,32.929 -2.771,37.654c-0.321,1.858 -0.65,3.237 -3.762,4.821c-6.592,2.621 -18.271,6.958 -18.271,6.958l-113.65,8.671c-2.979,0.2 -8.992,0.646 -9.954,8.038c0.441,10.666 5.683,26.841 5.683,26.841Z" style="fill:#004566;fill-rule:nonzero;"></path>
    <path d="M258.767,245.096c-0,-0 -30.017,-0.8 -31.459,-0c-1.454,0.8 -2.096,3.858 2.084,3.858c4.162,0 11.396,0.159 14.116,0.317c0,-0 8.192,-0.484 12.367,-0.638c4.179,-0.166 4.654,-1.929 2.892,-3.537Z" style="fill:#004566;fill-rule:nonzero;"></path>
    <path d="M273.7,249.575c0,0 30.012,0.804 31.454,0c1.454,-0.812 2.096,-3.862 -2.079,-3.862c-4.171,-0 -11.4,-0.155 -14.133,-0.321c-0,-0 -8.179,0.479 -12.355,0.646c-4.179,0.154 -4.65,1.92 -2.887,3.537Z" style="fill:#004566;fill-rule:nonzero;"></path>
  </g>
</svg>
