<?xml version="1.0" standalone="no"?>
<!DOCTYPE svg PUBLIC "-//W3C//DTD SVG 20010904//EN"
 "http://www.w3.org/TR/2001/REC-SVG-20010904/DTD/svg10.dtd">
<svg version="1.0" xmlns="http://www.w3.org/2000/svg"
 width="1099.000000pt" height="1099.000000pt" viewBox="0 0 1099.000000 1099.000000"
 preserveAspectRatio="xMidYMid meet">
<metadata>
Created by potrace 1.14, written by Peter Selinger 2001-2017
</metadata>
<g transform="translate(0.000000,1099.000000) scale(0.100000,-0.100000)"
fill="#000000" stroke="none">
<path d="M4490 10775 c-106 -20 -202 -45 -247 -66 -24 -10 -46 -19 -50 -19
-15 0 -178 -85 -197 -102 -11 -10 -25 -18 -31 -18 -7 0 -20 -9 -30 -20 -10
-11 -22 -20 -27 -20 -5 0 -23 -13 -41 -30 -18 -16 -38 -30 -45 -30 -7 0 -10
-4 -7 -10 3 -5 1 -10 -5 -10 -16 0 -180 -162 -180 -178 0 -7 -4 -10 -10 -7 -5
3 -10 0 -10 -8 0 -8 -9 -22 -20 -32 -11 -10 -20 -23 -20 -30 0 -7 -9 -20 -20
-30 -11 -10 -20 -22 -20 -26 0 -4 -13 -27 -29 -51 -28 -43 -82 -194 -98 -278
-11 -53 -11 -316 0 -326 4 -4 7 -22 7 -40 0 -18 5 -36 10 -39 6 -3 10 -15 10
-27 0 -11 8 -42 17 -69 10 -26 15 -51 12 -54 -4 -3 -38 -1 -76 5 -39 6 -92 9
-119 5 -131 -14 -150 -18 -158 -26 -6 -5 -18 -9 -28 -9 -10 0 -28 -5 -41 -12
-45 -23 -57 -28 -67 -28 -6 0 -25 -13 -43 -30 -18 -16 -36 -30 -40 -30 -11 0
-37 -26 -37 -38 0 -5 -7 -15 -15 -22 -19 -15 -45 -68 -45 -90 0 -9 -3 -20 -7
-24 -12 -12 -15 -59 -5 -81 6 -11 18 -38 27 -59 28 -62 134 -151 211 -176 22
-7 44 -16 49 -20 19 -14 139 -50 166 -50 15 0 31 -4 34 -10 3 -5 22 -10 41
-10 19 0 34 -4 34 -8 0 -10 -43 -52 -53 -52 -4 0 -24 -15 -43 -34 -81 -77 -91
-86 -102 -86 -7 0 -11 -6 -10 -12 2 -7 -3 -12 -9 -10 -7 1 -13 -3 -13 -8 0
-10 -30 -47 -75 -94 -11 -12 -31 -37 -45 -56 -13 -19 -31 -42 -40 -50 -8 -8
-21 -27 -29 -42 -8 -16 -18 -28 -23 -28 -4 0 -8 -6 -8 -13 0 -7 -9 -23 -20
-35 -11 -12 -20 -25 -20 -30 0 -4 -8 -17 -18 -28 -10 -10 -25 -36 -35 -56 -10
-20 -23 -43 -30 -50 -7 -7 -29 -46 -48 -85 -20 -40 -39 -69 -43 -65 -4 4 -7 3
-6 -3 5 -23 -1 -46 -10 -40 -5 3 -10 -3 -10 -14 0 -12 -4 -21 -10 -21 -5 0
-10 -9 -10 -20 0 -11 -4 -20 -10 -20 -5 0 -9 -3 -9 -7 3 -21 -2 -44 -9 -39 -5
3 -9 -1 -9 -9 0 -21 -44 -105 -55 -105 -5 0 -6 -4 -3 -10 3 -5 -1 -10 -9 -10
-9 0 -16 -4 -16 -8 0 -5 -12 -15 -27 -23 -15 -8 -41 -26 -57 -41 -16 -16 -33
-28 -37 -28 -5 0 -28 -18 -51 -40 -24 -22 -47 -40 -51 -40 -4 0 -22 -13 -40
-30 -18 -16 -35 -30 -40 -30 -4 0 -21 -13 -39 -30 -17 -16 -35 -30 -40 -30 -4
0 -22 -13 -40 -30 -17 -16 -35 -30 -39 -30 -5 0 -28 -18 -51 -40 -24 -22 -46
-40 -51 -40 -4 0 -21 -13 -39 -30 -17 -16 -37 -30 -45 -30 -8 0 -11 -4 -8 -10
3 -5 0 -10 -9 -10 -8 0 -16 -4 -18 -8 -1 -4 -23 -23 -47 -42 -25 -19 -63 -52
-85 -72 -23 -21 -44 -38 -48 -38 -5 0 -27 -18 -50 -40 -24 -22 -46 -40 -50
-40 -4 0 -31 -22 -60 -50 -29 -27 -56 -50 -60 -50 -4 0 -31 -22 -60 -50 -29
-27 -58 -50 -66 -50 -7 0 -10 -4 -7 -10 3 -5 2 -10 -4 -10 -6 0 -34 -22 -63
-50 -29 -27 -56 -50 -60 -50 -4 0 -34 -25 -65 -56 -32 -31 -78 -73 -102 -93
-25 -20 -88 -77 -140 -128 -52 -50 -99 -89 -105 -86 -5 3 -6 2 -3 -4 4 -5 -5
-16 -18 -23 -14 -7 -25 -20 -25 -27 0 -8 -3 -12 -7 -10 -10 5 -72 -60 -65 -68
3 -3 -2 -5 -11 -5 -9 0 -17 -7 -17 -17 0 -9 -3 -14 -6 -10 -8 8 -54 -38 -54
-54 0 -7 -3 -10 -6 -6 -7 7 -34 -17 -34 -30 0 -4 -36 -45 -80 -91 -44 -45 -80
-86 -80 -90 0 -4 -17 -25 -38 -47 -20 -22 -43 -53 -51 -68 -8 -15 -18 -27 -23
-27 -4 0 -8 -7 -8 -16 0 -9 -5 -12 -12 -8 -6 4 -8 3 -4 -4 3 -6 1 -16 -6 -24
-21 -21 -58 -98 -58 -118 0 -11 -5 -22 -11 -25 -6 -4 -9 -36 -8 -76 1 -37 6
-66 11 -63 4 3 8 -6 8 -20 0 -13 4 -26 9 -28 5 -1 11 -9 13 -17 4 -17 144
-161 156 -161 5 0 22 -12 38 -28 16 -15 46 -35 66 -45 20 -10 43 -23 50 -30 7
-7 45 -29 85 -49 39 -20 70 -38 67 -40 -2 -3 3 -5 11 -5 8 0 54 -19 102 -43
48 -23 97 -46 108 -50 11 -4 40 -17 63 -29 24 -11 53 -21 64 -21 12 0 17 -4
12 -12 -4 -6 -3 -8 3 -5 5 3 22 -1 37 -9 16 -7 34 -14 40 -14 7 0 31 -9 54
-20 22 -11 48 -20 56 -20 8 0 18 -4 21 -10 3 -5 17 -10 30 -10 13 0 27 -4 30
-10 3 -5 17 -10 30 -10 13 0 27 -4 30 -10 3 -5 17 -10 30 -10 13 0 27 -4 30
-10 3 -5 17 -10 30 -10 13 0 27 -5 30 -10 3 -5 17 -10 30 -10 13 0 27 -5 30
-10 3 -5 17 -10 30 -10 13 0 27 -4 30 -10 3 -5 16 -10 29 -10 12 0 26 -4 31
-8 6 -5 35 -14 65 -21 30 -7 64 -16 75 -20 41 -17 92 -31 108 -31 10 0 25 -4
35 -9 29 -14 87 -31 110 -31 11 0 23 -4 26 -9 3 -5 20 -11 38 -14 71 -11 168
-41 168 -52 0 -6 -11 -22 -25 -35 -14 -13 -25 -27 -25 -31 0 -8 57 -39 71 -39
4 0 55 -22 113 -50 58 -28 112 -50 121 -50 9 0 13 -4 10 -10 -3 -5 1 -10 10
-10 9 0 63 -22 120 -50 57 -27 111 -50 120 -50 10 0 13 -5 9 -12 -4 -6 -3 -8
3 -5 5 3 47 -13 94 -36 46 -23 86 -43 89 -43 26 -2 321 -150 315 -157 -3 -4
-2 -5 2 -2 3 3 18 -3 32 -12 14 -9 87 -48 161 -86 74 -39 146 -77 160 -87 14
-9 42 -24 62 -33 20 -10 39 -21 41 -25 2 -4 0 -34 -4 -67 -5 -33 -11 -96 -15
-140 -3 -44 -12 -113 -20 -153 -8 -40 -17 -112 -20 -160 -3 -48 -8 -131 -12
-184 -4 -54 -7 -131 -7 -173 0 -41 -4 -75 -8 -75 -5 0 -8 -69 -8 -152 1 -84
-3 -205 -9 -268 -5 -63 -12 -142 -15 -175 -9 -123 -42 -379 -52 -405 -3 -8 -6
-22 -7 -30 -2 -22 -26 -133 -33 -150 -3 -8 -8 -28 -10 -45 -3 -16 -8 -34 -12
-40 -4 -5 -7 -17 -6 -25 1 -8 -3 -26 -8 -40 -4 -13 -11 -43 -14 -65 -3 -22 -9
-44 -14 -49 -5 -6 -9 -20 -9 -32 0 -13 -5 -26 -10 -29 -6 -4 -8 -10 -5 -15 2
-4 -1 -28 -9 -53 -8 -25 -11 -48 -8 -51 3 -4 -1 -6 -10 -6 -8 0 -21 12 -29 28
-8 15 -22 36 -31 46 -10 11 -18 25 -18 32 0 6 -7 17 -15 24 -8 7 -26 36 -41
66 -14 30 -30 54 -35 54 -5 0 -9 6 -9 13 0 7 -8 22 -17 33 -10 10 -24 31 -32
47 -8 15 -18 27 -23 27 -4 0 -8 6 -8 13 0 7 -8 22 -17 33 -10 10 -24 31 -32
47 -8 15 -18 27 -23 27 -4 0 -8 6 -8 13 0 8 -9 22 -20 32 -11 10 -20 23 -20
30 0 7 -9 20 -20 30 -11 10 -20 22 -20 26 0 5 -10 20 -23 35 -12 14 -20 26
-17 27 4 2 -20 34 -48 62 -6 8 -12 16 -12 20 0 3 -23 35 -50 70 -28 35 -50 67
-50 70 0 3 -13 20 -30 38 -16 18 -30 37 -30 44 0 6 -4 13 -8 15 -5 2 -32 35
-62 73 -30 39 -57 72 -62 73 -4 2 -8 8 -8 13 0 6 -10 20 -22 33 -31 32 -58 65
-58 72 0 4 -47 58 -87 100 -7 7 -13 16 -13 19 0 4 -23 31 -51 60 -28 29 -50
56 -50 59 0 3 -45 53 -102 112 -56 58 -101 110 -99 116 1 5 -2 7 -6 4 -12 -7
-44 28 -35 39 5 4 3 5 -3 2 -14 -8 -47 26 -37 37 5 4 1 6 -7 4 -9 -2 -14 3
-12 12 2 8 1 12 -3 8 -9 -9 -61 43 -57 57 2 5 1 7 -3 3 -10 -10 -45 24 -38 36
3 6 3 8 -1 4 -6 -5 -67 47 -170 147 -17 17 -41 38 -54 46 -12 9 -40 33 -62 53
-21 20 -44 36 -50 36 -6 0 -8 5 -5 10 3 5 0 10 -7 10 -7 0 -27 14 -45 30 -18
17 -36 30 -40 30 -4 0 -22 14 -40 30 -18 17 -37 30 -43 30 -6 0 -8 5 -5 10 3
6 0 10 -8 10 -8 0 -22 9 -32 20 -10 11 -23 20 -30 20 -6 0 -20 8 -31 18 -10 9
-31 23 -46 31 -16 8 -28 18 -28 23 0 4 -5 8 -11 8 -6 0 -31 13 -56 30 -24 16
-46 30 -49 30 -2 0 -23 12 -47 27 -56 36 -168 93 -183 93 -21 0 -64 27 -56 35
4 5 2 5 -4 2 -6 -3 -23 1 -38 9 -16 7 -36 14 -45 14 -9 0 -21 4 -26 9 -14 12
-111 43 -154 48 -20 3 -40 9 -46 13 -5 4 -30 10 -55 14 -25 4 -63 10 -85 14
-52 9 -315 9 -337 0 -17 -7 -18 -80 -18 -1332 l0 -1325 49 -50 c27 -28 53 -51
58 -51 4 0 27 -18 51 -40 23 -22 47 -40 53 -40 5 0 8 -4 4 -9 -3 -5 3 -12 12
-15 10 -3 34 -21 53 -39 19 -18 51 -44 70 -57 19 -13 42 -32 51 -42 9 -10 21
-18 26 -18 6 0 24 -14 41 -30 18 -17 35 -30 39 -30 5 0 22 -12 38 -26 17 -14
42 -33 58 -42 15 -9 27 -20 27 -24 0 -4 7 -8 16 -8 8 0 12 -4 9 -10 -3 -5 1
-10 11 -10 9 0 24 -8 33 -18 9 -9 28 -23 44 -31 15 -8 27 -18 27 -23 0 -4 6
-8 13 -8 6 0 25 -11 41 -25 16 -13 37 -27 47 -30 11 -4 19 -11 19 -16 0 -5 6
-9 13 -9 6 -1 28 -14 47 -30 19 -17 40 -30 47 -30 7 0 13 -4 13 -10 0 -5 6
-10 13 -10 7 0 22 -8 33 -17 11 -10 30 -24 42 -31 17 -9 849 -12 4066 -12
l4045 0 3 28 c3 27 4 27 93 33 89 6 214 31 247 49 10 6 26 10 36 10 10 0 22 4
28 10 5 5 18 11 29 13 26 4 193 85 200 97 3 5 23 17 43 27 20 9 55 34 77 55
22 21 44 38 48 38 18 0 119 118 146 173 8 15 18 27 23 27 4 0 8 11 8 24 0 14
5 28 10 31 13 8 13 175 0 175 -5 0 -10 9 -10 20 0 26 -46 77 -88 97 -41 19
-132 13 -187 -13 -20 -9 -43 -17 -51 -17 -8 0 -12 -2 -9 -5 2 -3 -26 -20 -63
-39 -36 -18 -83 -47 -104 -63 -20 -17 -42 -30 -47 -30 -6 0 -11 -3 -11 -7 0
-5 -12 -16 -26 -26 -31 -23 -54 -9 -54 34 0 15 -5 40 -11 56 -14 36 -15 139
-2 155 8 10 25 140 25 193 0 50 -17 197 -23 201 -5 3 -9 17 -9 32 -1 32 -23
118 -33 128 -4 4 -7 14 -7 23 0 21 -108 237 -126 252 -8 6 -14 18 -14 25 0 8
-4 14 -8 14 -9 0 -42 53 -42 67 0 5 16 26 35 46 19 20 35 40 35 45 0 4 18 25
40 47 21 22 39 45 40 50 0 6 14 24 30 42 17 18 30 36 30 40 0 4 14 22 30 40
17 18 30 36 30 40 0 4 12 22 28 38 15 17 33 42 41 58 8 15 18 27 23 27 4 0 8
6 8 13 0 8 9 22 20 32 11 10 20 22 20 26 0 8 20 36 48 64 6 8 12 18 12 22 0 5
8 18 18 29 10 10 25 35 35 55 9 20 23 42 32 49 8 7 15 17 15 22 0 6 9 23 20
38 11 16 33 52 48 82 36 68 56 102 62 108 3 3 16 28 30 55 14 28 28 52 33 53
4 2 7 9 7 16 0 7 22 55 48 107 26 52 54 120 61 152 13 51 12 64 -3 120 -20 73
-69 179 -91 197 -8 7 -15 18 -15 24 0 6 -14 25 -30 43 -17 18 -30 35 -30 39 0
10 -266 274 -277 274 -4 0 -26 18 -48 40 -22 21 -46 39 -53 40 -7 0 -10 5 -7
10 3 5 0 10 -7 10 -7 0 -31 17 -53 38 -22 20 -52 43 -67 51 -16 8 -28 18 -28
23 0 4 -6 8 -12 8 -7 0 -27 14 -45 30 -18 17 -36 30 -40 30 -4 0 -21 12 -38
28 -16 15 -42 33 -57 41 -16 8 -28 18 -28 23 0 4 -7 8 -16 8 -14 0 -16 9 -10
71 4 39 12 83 17 97 7 19 6 29 -7 43 -10 11 -21 19 -27 19 -5 0 -47 18 -93 40
-47 22 -87 40 -90 40 -3 0 -26 10 -52 22 -26 12 -58 23 -71 25 -14 3 -36 12
-50 22 -14 9 -51 30 -82 44 -32 15 -62 34 -69 42 -7 8 -16 13 -20 10 -5 -3
-11 -1 -15 4 -3 5 -31 22 -63 37 -31 15 -75 40 -97 54 -22 14 -66 39 -97 54
-32 15 -60 31 -63 36 -3 5 -39 25 -80 45 -41 21 -75 42 -75 47 0 5 -4 7 -9 3
-5 -3 -12 -1 -16 5 -3 5 -26 19 -50 30 -24 11 -49 25 -57 32 -7 7 -40 27 -73
43 -57 29 -82 61 -53 69 7 2 55 14 107 26 372 89 634 235 825 459 26 30 127
187 125 193 0 2 4 16 10 31 6 16 11 33 11 38 0 5 44 9 98 10 107 0 307 40 387
78 11 5 38 17 60 26 212 93 421 239 465 324 55 109 81 297 85 621 2 238 -1
329 -23 650 -5 69 -8 127 -6 128 1 2 24 4 51 3 46 0 106 19 118 39 3 5 21 17
40 26 19 9 35 20 35 25 0 5 6 9 13 9 7 0 26 13 42 30 16 16 34 30 40 30 15 0
195 183 195 198 0 6 4 12 8 12 4 0 19 18 32 39 14 21 29 36 34 33 5 -3 6 0 2
6 -3 6 1 17 9 25 8 9 15 19 15 23 0 9 43 98 51 104 3 3 8 16 11 30 3 14 13 52
22 85 22 78 31 294 18 417 -10 91 -33 191 -53 230 -5 10 -9 27 -9 37 0 11 -4
22 -9 25 -5 3 -12 18 -15 33 -9 35 -96 213 -105 213 -3 0 -12 15 -20 33 -15
33 -208 237 -226 237 -5 0 -23 12 -40 28 -16 15 -43 34 -60 42 -16 8 -48 26
-70 40 -36 24 -112 63 -125 65 -3 0 -26 9 -52 19 l-48 19 0 82 c0 80 -22 175
-41 175 -5 0 -9 6 -9 13 0 16 -35 48 -70 65 -119 57 -248 56 -490 -4 -65 -16
-279 -89 -308 -106 -18 -10 -39 -18 -46 -18 -8 0 -39 -13 -69 -29 -79 -41
-141 -59 -237 -66 -90 -6 -155 -14 -365 -46 -175 -26 -168 -25 -185 -32 -8 -3
-33 -8 -55 -10 -65 -7 -219 -38 -237 -48 -10 -5 -28 -9 -40 -9 -13 0 -54 -9
-93 -20 -38 -11 -82 -20 -97 -20 -15 0 -30 -4 -33 -10 -3 -5 -17 -10 -30 -10
-13 0 -27 -4 -30 -10 -3 -5 -18 -10 -32 -10 -26 0 -92 -16 -128 -30 -11 -5
-45 -14 -75 -21 -30 -7 -59 -16 -64 -21 -6 -4 -17 -8 -25 -8 -19 0 -208 -58
-233 -71 -10 -5 -27 -9 -37 -9 -11 0 -23 -4 -26 -10 -3 -5 -17 -10 -30 -10
-13 0 -27 -4 -30 -10 -3 -5 -17 -10 -30 -10 -13 0 -27 -4 -30 -10 -3 -5 -17
-10 -30 -10 -13 0 -27 -4 -30 -10 -3 -5 -17 -10 -30 -10 -13 0 -27 -4 -30 -10
-3 -5 -17 -10 -30 -10 -13 0 -27 -4 -30 -10 -3 -5 -15 -10 -25 -10 -11 0 -35
-9 -55 -20 -20 -11 -44 -20 -55 -20 -10 0 -22 -4 -25 -10 -3 -5 -15 -10 -25
-10 -11 0 -35 -9 -55 -20 -20 -11 -42 -20 -50 -20 -8 0 -29 -8 -47 -18 -56
-32 -95 -35 -118 -10 -11 12 -20 27 -20 33 0 7 -9 20 -20 30 -11 10 -20 24
-20 30 0 7 -7 18 -15 25 -8 7 -13 16 -10 20 3 5 1 10 -3 12 -9 3 -72 93 -72
103 0 3 -9 15 -19 26 -10 11 -21 32 -24 46 l-5 25 67 -6 c36 -4 82 -9 101 -11
152 -20 200 -25 237 -25 57 0 144 20 137 31 -3 5 1 9 8 9 9 0 15 13 16 35 2
19 -1 35 -7 35 -5 0 -11 9 -14 20 -3 11 -16 24 -29 30 -12 5 -30 14 -38 20
-26 16 -188 79 -208 80 -33 2 -84 14 -88 22 -3 5 0 17 8 26 8 9 20 29 28 45 7
15 16 27 20 27 4 0 13 19 20 43 7 23 17 46 22 52 18 20 9 132 -14 177 -25 47
-42 68 -55 68 -5 0 -18 8 -29 18 -43 39 -142 67 -209 60 -66 -8 -151 -54 -212
-114 -29 -30 -53 -57 -53 -62 0 -5 -9 -17 -20 -27 -11 -10 -20 -23 -20 -30 0
-6 -8 -20 -17 -31 -10 -10 -24 -31 -32 -46 -19 -36 -25 -35 -45 6 -8 18 -22
39 -31 46 -8 7 -15 18 -15 24 0 6 -20 31 -44 56 -24 25 -42 48 -39 53 2 4 -1
6 -9 5 -7 -2 -12 4 -10 12 2 8 0 12 -4 8 -3 -4 -28 12 -55 36 -27 24 -64 51
-83 60 -19 9 -38 21 -41 26 -7 12 -65 40 -82 40 -7 0 -13 5 -13 10 0 6 -10 10
-23 10 -13 0 -27 4 -33 9 -12 13 -106 38 -209 56 -95 17 -264 17 -355 0z
m-794 -3193 c1 -19 5 -37 11 -40 5 -4 9 -17 8 -28 -1 -12 3 -32 8 -45 5 -13
11 -49 13 -79 3 -30 7 -62 11 -70 3 -8 8 -26 9 -39 2 -13 6 -31 10 -40 4 -9 8
-32 9 -52 1 -19 6 -42 10 -49 5 -8 11 -46 13 -85 2 -38 8 -74 13 -79 5 -6 9
-29 9 -52 0 -24 4 -45 9 -49 6 -3 9 -18 7 -33 -1 -15 2 -38 7 -52 5 -14 12
-61 14 -105 2 -43 9 -87 14 -96 5 -10 9 -38 9 -63 0 -25 4 -46 9 -46 4 0 8
-21 7 -47 -1 -27 2 -57 7 -67 5 -11 11 -68 14 -128 l4 -108 -26 0 c-37 0 -39
0 -55 -14 -8 -7 -23 -16 -33 -19 -10 -4 -16 -11 -13 -16 3 -5 -1 -14 -9 -21
-8 -7 -13 -16 -10 -20 3 -5 1 -11 -5 -15 -17 -11 -11 -63 10 -83 16 -15 19
-27 15 -63 -7 -66 -23 -159 -33 -201 -6 -21 -8 -38 -5 -38 3 0 0 -7 -7 -15
-17 -20 -18 -357 -1 -363 6 -2 11 -17 11 -33 0 -16 4 -29 8 -29 5 0 8 -19 7
-42 -1 -24 3 -54 8 -68 5 -14 11 -43 13 -65 3 -22 9 -44 14 -49 6 -6 10 -19
10 -29 0 -11 14 -36 30 -56 17 -20 34 -40 38 -46 4 -5 17 -23 30 -39 12 -16
22 -37 22 -48 0 -17 -6 -19 -52 -15 -29 2 -60 7 -68 10 -8 4 -35 8 -60 10 -25
2 -53 7 -62 11 -9 4 -36 9 -60 10 -24 2 -50 6 -59 10 -9 4 -31 8 -50 10 -19 2
-41 6 -49 10 -8 3 -31 8 -50 10 -19 2 -42 6 -50 10 -8 3 -31 8 -50 10 -19 2
-42 6 -50 10 -8 3 -31 8 -50 10 -19 2 -46 8 -60 13 -13 6 -34 9 -45 9 -11 -1
-23 2 -26 7 -3 5 -19 10 -35 11 -16 2 -42 8 -57 14 -15 7 -31 11 -35 10 -4 -1
-20 2 -36 7 -16 4 -36 9 -45 10 -9 1 -29 7 -44 13 -16 7 -32 10 -37 7 -5 -3
-10 -1 -12 5 -1 5 -12 11 -23 13 -11 2 -28 7 -37 11 -9 4 -23 9 -31 10 -8 1
-22 8 -31 15 -9 7 -16 10 -16 6 0 -5 -9 0 -21 11 -12 10 -24 18 -28 18 -3 -1
-16 3 -29 9 -31 14 -41 2 -46 -58 -2 -28 -7 -57 -10 -65 -3 -8 -7 -35 -10 -60
-5 -57 -22 -100 -39 -100 -7 0 -21 6 -32 14 -11 7 -23 14 -27 15 -26 5 -148
50 -172 63 -11 7 -29 13 -39 15 -10 2 -37 11 -60 22 -39 17 -75 32 -87 36 -3
1 -14 5 -25 10 -11 4 -45 18 -75 30 -30 12 -64 26 -75 30 -11 5 -22 9 -25 10
-12 4 -48 19 -90 38 -25 11 -45 18 -46 16 0 -2 -9 3 -19 11 -10 8 -25 15 -34
15 -9 0 -23 5 -31 10 -34 23 -63 35 -70 30 -4 -3 -11 2 -14 10 -3 8 -9 14 -13
14 -11 -3 -34 7 -133 54 -47 23 -88 41 -92 42 -3 0 -9 3 -13 7 -4 4 -35 21
-70 37 -71 35 -81 45 -88 87 -6 37 39 137 78 174 14 13 25 28 25 32 0 5 21 32
48 60 26 28 46 54 44 59 -1 5 5 9 15 9 9 0 14 3 11 6 -8 7 42 60 53 56 5 -1 8
4 7 10 -2 7 3 12 10 10 6 -1 11 2 10 7 -4 11 58 71 72 71 5 0 9 6 8 13 -2 6 3
11 10 9 6 -1 11 4 10 10 -2 7 3 12 10 10 6 -1 11 2 10 7 -3 9 46 59 60 62 12
2 177 164 175 171 -2 4 5 4 14 1 11 -4 14 -3 9 5 -4 7 -1 12 6 12 8 0 34 20
58 45 24 24 47 42 52 39 5 -3 7 -2 6 3 -3 11 34 53 47 53 5 0 36 25 68 54 31
30 57 52 57 49 0 -3 27 18 59 48 82 74 133 114 143 112 4 -2 4 5 1 14 -4 11
-3 14 5 9 7 -4 15 -1 18 8 3 9 9 14 14 11 4 -2 20 9 35 25 16 17 35 30 42 30
7 0 12 5 10 12 -1 7 3 12 10 13 6 0 29 16 50 36 21 20 44 38 50 40 6 2 32 22
57 44 26 22 64 55 85 72 21 18 41 29 45 25 4 -4 6 0 4 8 -2 8 2 14 9 15 6 0
26 13 45 30 18 16 36 29 40 28 4 -2 16 9 27 23 11 14 42 33 68 43 26 10 66 30
87 44 21 15 43 27 47 27 5 0 9 7 9 16 0 8 5 12 11 8 6 -3 27 10 47 29 21 20
42 37 47 39 12 3 40 25 67 53 10 11 23 20 27 20 9 0 59 40 130 102 26 24 51
39 55 35 4 -4 6 0 4 8 -1 8 2 14 9 15 7 0 41 28 76 62 35 35 66 60 69 58 3 -3
11 2 18 10 7 9 23 15 34 13 16 -2 21 -11 22 -36z m4644 -3572 c0 -5 9 -10 20
-10 11 0 20 -4 20 -10 0 -5 9 -10 19 -10 11 0 21 -4 23 -9 2 -5 10 -11 18 -13
8 -2 22 -10 30 -18 8 -8 27 -21 43 -29 15 -8 27 -18 27 -23 0 -4 9 -8 20 -8
11 0 20 -4 20 -10 0 -5 6 -10 13 -10 8 0 22 -9 32 -20 10 -11 27 -20 38 -20
13 0 17 -5 14 -14 -4 -10 -1 -13 9 -9 7 3 14 0 14 -6 0 -6 6 -11 13 -11 7 0
23 -9 35 -20 12 -11 28 -20 37 -20 8 0 15 -4 15 -10 0 -5 14 -10 30 -10 17 0
30 -3 30 -7 0 -5 12 -13 26 -20 23 -11 29 -9 60 22 19 19 34 41 34 50 0 20 43
20 60 0 7 -8 16 -13 20 -10 4 2 18 -7 30 -20 13 -14 29 -25 35 -25 6 0 24 -13
40 -30 16 -16 34 -30 40 -30 16 0 190 -181 202 -210 12 -31 14 -168 2 -176 -5
-3 -9 -20 -9 -39 0 -19 -4 -36 -9 -39 -4 -3 -11 -23 -15 -43 -3 -21 -13 -51
-21 -67 -9 -16 -17 -37 -19 -45 -4 -20 -13 -43 -39 -101 -11 -25 -21 -47 -21
-50 -1 -3 -18 -39 -38 -80 -20 -41 -46 -95 -58 -120 -18 -39 -45 -91 -123
-237 -10 -18 -18 -36 -18 -40 0 -5 -8 -16 -16 -25 -9 -10 -12 -18 -8 -18 5 0
-1 -10 -12 -22 -11 -13 -23 -31 -26 -40 -4 -10 -13 -18 -22 -18 -11 0 -15 11
-15 39 0 22 -4 43 -10 46 -5 3 -10 17 -10 31 0 13 -4 24 -8 24 -4 0 -9 17 -10
37 -2 21 -6 40 -10 43 -4 3 -9 16 -10 30 -2 14 -8 27 -13 28 -5 2 -9 17 -9 33
0 16 -4 29 -8 29 -5 0 -9 17 -10 37 -1 21 -6 39 -12 41 -5 2 -10 17 -10 33 0
16 -5 29 -11 29 -6 0 -9 9 -6 20 3 11 -1 27 -9 34 -8 8 -14 26 -14 40 0 14 -4
28 -10 31 -5 3 -10 17 -10 31 0 13 -4 24 -10 24 -5 0 -10 14 -10 30 0 17 -4
30 -8 30 -4 0 -9 12 -10 28 -1 15 -7 29 -12 30 -6 2 -10 17 -10 33 0 16 -4 29
-10 29 -5 0 -10 7 -10 15 0 8 -4 23 -9 33 -5 9 -15 38 -23 65 -7 26 -16 47
-20 47 -4 0 -8 6 -8 13 0 7 -9 32 -20 55 -11 22 -20 45 -20 49 0 5 -13 35 -30
68 -16 33 -30 65 -30 71 0 7 -13 37 -29 67 -16 30 -34 72 -41 93 -7 22 -16 41
-20 44 -4 3 -31 52 -61 110 -30 58 -57 107 -60 110 -7 6 -29 47 -29 54 0 3 14
6 30 6 17 0 30 -4 30 -10z"/>
</g>
</svg>
